<svg id="svg" version="1.1" xmlns="http://www.w3.org/2000/svg" xmlns:xlink="http://www.w3.org/1999/xlink" width="400" height="257.56802721088434" viewBox="0, 0, 400,257.56802721088434"><g id="svgg"><path id="path0" d="M186.667 2.782 C 183.676 3.103,179.933 4.184,177.439 5.448 C 176.607 5.869,163.084 13.938,161.583 14.908 C 161.125 15.205,159.625 16.106,158.250 16.912 C 156.875 17.718,155.375 18.625,154.917 18.928 C 154.458 19.232,153.258 19.961,152.250 20.551 C 151.242 21.140,148.242 22.938,145.583 24.547 C 142.925 26.156,139.325 28.320,137.583 29.356 C 135.842 30.391,133.791 31.653,133.026 32.161 C 132.261 32.668,131.286 33.302,130.859 33.569 C 124.578 37.503,121.830 40.678,120.013 46.103 C 118.562 50.431,118.515 60.939,119.926 65.262 C 122.003 71.624,125.934 75.521,133.833 79.048 C 135.162 79.642,138.200 81.007,140.583 82.081 C 142.967 83.156,146.717 84.843,148.917 85.831 C 151.117 86.819,155.579 88.828,158.833 90.295 C 162.087 91.762,167.787 94.329,171.500 95.999 C 175.213 97.669,182.037 100.743,186.667 102.830 C 191.296 104.918,197.708 107.806,200.917 109.248 C 204.125 110.690,208.625 112.715,210.917 113.748 C 213.208 114.781,217.371 116.657,220.167 117.915 C 222.963 119.174,227.575 121.254,230.417 122.538 C 233.258 123.822,235.790 124.945,236.042 125.036 L 236.500 125.199 236.500 126.892 L 236.500 128.585 233.888 130.168 C 232.451 131.038,230.732 132.050,230.067 132.417 C 228.817 133.106,223.332 136.365,220.824 137.909 C 220.040 138.391,219.028 138.992,218.574 139.243 C 217.217 139.995,215.783 140.870,215.234 141.281 C 214.951 141.493,214.678 141.667,214.628 141.667 C 214.579 141.667,213.761 142.142,212.811 142.723 C 211.861 143.304,210.633 144.029,210.083 144.333 C 209.533 144.638,208.446 145.293,207.667 145.789 C 206.887 146.285,205.084 147.379,203.658 148.220 C 201.298 149.614,197.710 151.764,192.192 155.092 C 189.454 156.744,189.283 156.747,186.709 155.206 C 185.678 154.588,182.153 152.478,178.876 150.516 C 175.598 148.553,172.054 146.412,171.000 145.758 C 169.946 145.103,168.071 143.980,166.833 143.261 C 165.596 142.542,164.208 141.713,163.750 141.419 C 162.208 140.429,160.676 139.500,160.586 139.500 C 160.537 139.500,159.691 139.000,158.707 138.390 C 155.866 136.628,152.324 134.500,152.232 134.500 C 152.186 134.500,151.384 134.022,150.449 133.437 C 148.607 132.286,144.340 129.726,143.667 129.369 C 143.438 129.247,143.007 128.983,142.709 128.782 L 142.169 128.417 142.168 122.535 C 142.166 114.812,141.773 112.992,139.561 110.469 C 133.170 103.178,122.083 105.297,118.903 114.417 L 118.438 115.750 118.374 122.259 C 118.261 133.705,119.054 137.361,122.707 142.239 C 125.215 145.588,125.389 145.711,140.750 154.963 C 169.710 172.404,177.909 177.295,179.250 177.928 C 185.374 180.816,192.611 181.031,198.919 178.511 C 200.953 177.698,199.672 178.461,226.500 162.085 C 229.387 160.323,234.000 157.510,236.750 155.836 C 248.103 148.922,250.782 147.232,252.343 146.003 C 256.021 143.105,258.598 138.911,259.766 133.917 C 260.179 132.152,260.300 122.337,259.935 120.221 C 258.769 113.465,254.348 107.746,248.010 104.794 C 247.042 104.343,245.800 103.762,245.250 103.504 C 244.389 103.099,242.659 102.317,240.083 101.170 C 239.717 101.007,238.817 100.610,238.083 100.289 C 237.350 99.968,236.188 99.438,235.500 99.111 C 234.813 98.784,232.412 97.696,230.167 96.693 C 227.921 95.690,224.208 94.031,221.917 93.007 C 219.625 91.984,217.150 90.860,216.417 90.510 C 215.683 90.161,214.258 89.517,213.250 89.080 C 212.242 88.642,209.692 87.497,207.583 86.535 C 205.475 85.572,203.262 84.579,202.667 84.327 C 201.296 83.748,199.965 83.149,198.167 82.301 C 197.387 81.934,195.137 80.922,193.167 80.052 C 191.196 79.182,188.983 78.184,188.250 77.834 C 187.517 77.484,185.604 76.623,184.000 75.920 C 182.396 75.218,180.221 74.241,179.167 73.749 C 176.894 72.688,172.357 70.667,172.250 70.667 C 172.209 70.667,171.630 70.399,170.963 70.073 C 170.296 69.746,168.550 68.948,167.083 68.299 C 165.617 67.651,162.729 66.352,160.667 65.413 C 158.604 64.474,156.017 63.314,154.917 62.835 C 153.817 62.355,152.072 61.559,151.039 61.065 C 150.007 60.571,149.069 60.166,148.956 60.164 C 148.843 60.163,147.362 59.532,145.667 58.762 L 142.583 57.362 142.583 55.570 L 142.583 53.777 155.750 45.846 C 162.992 41.484,173.329 35.257,178.721 32.009 C 188.106 26.355,188.566 26.100,189.476 26.034 C 190.783 25.939,190.674 25.884,199.044 30.931 C 211.263 38.298,222.180 44.882,229.750 49.448 L 236.917 53.771 237.011 60.427 C 237.087 65.797,237.156 67.250,237.367 67.944 C 240.049 76.758,250.838 79.469,257.343 72.964 C 258.954 71.352,260.407 68.466,260.538 66.619 C 260.559 66.324,260.621 68.183,260.677 70.750 C 260.732 73.317,260.748 70.204,260.713 63.833 C 260.677 57.462,260.574 51.479,260.484 50.536 C 259.898 44.381,256.394 38.565,251.250 35.210 C 250.333 34.612,249.096 33.804,248.500 33.416 C 246.921 32.387,244.276 30.758,241.333 29.004 C 239.912 28.157,238.262 27.158,237.667 26.786 C 237.071 26.413,236.171 25.869,235.667 25.577 C 235.162 25.285,232.425 23.638,229.583 21.917 C 226.742 20.195,222.917 17.892,221.083 16.798 C 219.250 15.704,217.112 14.415,216.333 13.935 C 214.773 12.972,211.795 11.179,208.333 9.120 C 207.096 8.383,205.446 7.388,204.667 6.909 C 199.273 3.592,192.854 2.120,186.667 2.782 " stroke="none" fill="#dfdfe7" fill-rule="evenodd"></path><path id="path1" d="M188.528 26.177 C 188.314 26.263,183.814 28.939,178.528 32.124 C 173.242 35.310,162.992 41.485,155.750 45.846 L 142.583 53.777 142.583 55.570 L 142.583 57.362 145.667 58.762 C 149.395 60.454,148.683 60.469,151.717 58.635 C 156.632 55.663,168.620 48.444,171.583 46.673 C 173.233 45.686,175.183 44.505,175.917 44.048 C 176.650 43.592,178.075 42.730,179.083 42.134 C 180.092 41.539,182.004 40.392,183.333 39.587 C 189.067 36.112,188.450 36.417,189.750 36.417 L 190.917 36.417 197.417 40.326 C 200.992 42.477,205.417 45.131,207.250 46.226 C 209.083 47.320,211.108 48.546,211.750 48.951 C 212.392 49.356,214.117 50.401,215.583 51.273 C 217.050 52.146,219.862 53.838,221.833 55.033 C 225.142 57.038,228.268 58.920,234.500 62.656 L 236.917 64.105 236.961 59.019 C 236.995 55.086,236.957 53.890,236.794 53.740 C 236.678 53.633,233.433 51.652,229.583 49.336 C 225.733 47.020,218.946 42.932,214.500 40.251 C 188.219 24.402,190.989 25.994,189.714 26.011 C 189.275 26.016,188.742 26.091,188.528 26.177 M118.906 56.083 C 118.906 58.467,118.929 59.418,118.958 58.198 C 118.986 56.979,118.986 55.029,118.958 53.865 C 118.929 52.702,118.906 53.700,118.906 56.083 M118.917 62.887 C 117.628 76.323,122.153 84.325,133.917 89.419 C 134.925 89.855,136.125 90.395,136.583 90.618 C 137.042 90.841,139.404 91.912,141.833 92.998 C 149.609 96.474,154.714 98.771,156.083 99.410 C 156.817 99.752,159.029 100.743,161.000 101.612 C 162.971 102.481,164.876 103.342,165.235 103.524 C 165.593 103.706,167.506 104.569,169.485 105.442 C 171.464 106.314,173.646 107.295,174.333 107.621 C 175.021 107.947,177.383 109.019,179.583 110.005 C 181.783 110.990,185.871 112.825,188.667 114.083 C 191.463 115.340,195.588 117.189,197.833 118.191 C 200.079 119.193,202.442 120.264,203.083 120.571 C 203.725 120.878,205.563 121.706,207.167 122.410 C 208.771 123.114,210.946 124.092,212.000 124.584 C 214.180 125.601,218.808 127.667,218.907 127.667 C 218.943 127.667,219.823 128.068,220.862 128.559 C 221.900 129.049,223.725 129.883,224.917 130.412 C 226.108 130.940,227.655 131.626,228.354 131.936 C 229.990 132.662,229.541 132.790,233.258 130.542 L 236.497 128.583 236.498 126.891 L 236.500 125.199 236.042 125.036 C 235.790 124.945,233.258 123.822,230.417 122.538 C 227.575 121.254,222.963 119.174,220.167 117.915 C 217.371 116.657,213.208 114.781,210.917 113.748 C 208.625 112.715,204.125 110.690,200.917 109.248 C 197.708 107.806,191.296 104.918,186.667 102.830 C 182.037 100.743,175.213 97.669,171.500 95.999 C 167.787 94.329,162.087 91.762,158.833 90.295 C 155.579 88.828,151.117 86.819,148.917 85.831 C 146.717 84.843,142.967 83.156,140.583 82.081 C 138.200 81.007,135.162 79.642,133.833 79.048 C 125.123 75.159,120.878 70.460,119.335 63.000 L 119.042 61.583 118.917 62.887 M260.539 66.619 C 260.403 68.475,258.953 71.353,257.343 72.964 C 250.723 79.584,239.575 76.590,237.308 67.583 L 237.014 66.417 237.054 72.083 C 237.093 77.748,237.093 77.750,237.535 78.972 C 241.452 89.813,257.076 89.309,260.246 78.239 C 260.669 76.762,260.672 76.708,260.626 71.417 C 260.600 68.483,260.561 66.324,260.539 66.619 M131.631 154.651 L 131.680 159.917 133.381 160.901 C 134.318 161.443,135.758 162.315,136.583 162.839 C 137.408 163.363,138.380 163.950,138.742 164.143 C 139.105 164.336,141.205 165.587,143.409 166.923 C 145.613 168.259,148.074 169.742,148.878 170.218 C 152.153 172.158,156.492 174.767,157.667 175.503 C 158.354 175.934,160.117 176.999,161.583 177.869 C 163.050 178.740,165.112 179.975,166.167 180.614 C 167.221 181.254,168.721 182.155,169.500 182.616 C 170.279 183.078,171.817 184.001,172.917 184.667 C 181.047 189.590,183.845 190.563,189.833 190.552 C 195.359 190.541,198.669 189.432,205.333 185.355 C 206.754 184.486,209.417 182.863,211.250 181.748 C 215.404 179.222,220.362 176.198,224.917 173.412 C 229.416 170.659,233.276 168.309,238.167 165.345 C 240.321 164.040,242.458 162.727,242.917 162.428 C 243.375 162.129,244.425 161.483,245.250 160.993 C 246.075 160.503,246.805 160.023,246.872 159.926 C 247.008 159.731,247.050 149.667,246.916 149.667 C 246.869 149.667,245.688 150.370,244.291 151.229 C 242.893 152.088,239.500 154.161,236.750 155.836 C 234.000 157.510,229.387 160.323,226.500 162.085 C 199.672 178.461,200.953 177.698,198.919 178.511 C 192.611 181.031,185.374 180.816,179.250 177.928 C 178.425 177.539,171.412 173.410,163.667 168.752 C 155.921 164.094,145.721 157.966,141.000 155.133 C 136.279 152.300,132.229 149.847,132.000 149.683 L 131.583 149.385 131.631 154.651 " stroke="none" fill="#93949b" fill-rule="evenodd"></path><path id="path2" d="M25.333 0.086 C 25.196 0.114,24.408 0.228,23.583 0.339 C 17.090 1.208,10.816 4.910,6.190 10.599 C 3.672 13.695,1.611 18.478,0.917 22.833 C 0.564 25.053,-0.175 154.600,0.151 157.250 C 1.749 170.251,10.600 179.585,23.744 182.131 C 25.420 182.456,81.979 182.650,85.718 182.344 C 92.063 181.824,98.217 179.407,102.972 175.566 C 104.307 174.488,131.500 149.651,131.500 149.510 C 131.500 149.446,130.641 148.883,129.591 148.258 C 122.807 144.222,119.103 138.480,118.531 131.114 L 118.417 129.645 114.993 132.781 C 113.111 134.506,108.461 138.757,104.660 142.228 C 100.860 145.699,97.000 149.229,96.083 150.073 C 95.167 150.916,94.042 151.938,93.583 152.344 C 93.125 152.750,92.225 153.578,91.583 154.183 C 90.942 154.789,90.080 155.577,89.668 155.934 C 89.256 156.291,88.664 156.818,88.352 157.105 C 85.933 159.326,88.336 159.179,55.458 159.127 C 23.718 159.078,26.655 159.207,25.218 157.800 C 23.542 156.160,23.646 159.395,23.897 116.417 C 24.074 86.317,24.085 84.214,24.232 52.167 C 24.295 38.371,24.384 26.774,24.430 26.397 C 24.564 25.296,25.355 24.219,26.377 23.743 L 27.250 23.337 55.617 23.335 C 75.634 23.334,84.244 23.387,84.867 23.517 C 87.069 23.975,87.044 23.955,101.250 36.739 C 101.983 37.399,105.583 40.629,109.250 43.917 C 112.917 47.204,116.568 50.484,117.364 51.205 L 118.811 52.515 118.892 51.799 C 119.342 47.836,119.766 46.141,120.913 43.715 C 122.850 39.620,125.602 36.711,130.113 33.990 C 131.065 33.416,131.822 32.895,131.797 32.832 C 131.737 32.687,129.125 30.255,127.312 28.658 C 126.544 27.982,125.429 26.966,124.833 26.400 C 124.237 25.834,123.324 25.006,122.804 24.560 C 122.284 24.115,120.497 22.512,118.834 21.000 C 117.171 19.487,115.264 17.762,114.596 17.167 C 113.928 16.571,112.715 15.475,111.899 14.733 C 106.961 10.233,104.357 7.904,103.292 7.034 C 99.337 3.803,94.441 1.561,88.928 0.457 L 87.083 0.088 56.333 0.061 C 39.421 0.047,25.471 0.058,25.333 0.086 M292.750 0.113 C 286.671 0.699,280.440 3.178,275.684 6.901 C 274.101 8.141,273.650 8.553,268.665 13.321 C 266.694 15.207,263.922 17.837,262.507 19.167 C 261.091 20.496,259.104 22.376,258.091 23.344 C 253.326 27.902,251.950 29.224,250.045 31.073 L 247.995 33.063 248.539 33.395 C 256.561 38.294,260.140 43.683,260.640 51.617 L 260.750 53.359 264.921 49.388 C 267.215 47.204,272.801 41.892,277.334 37.583 C 281.867 33.275,286.591 28.782,287.830 27.598 C 290.289 25.249,291.459 24.399,293.046 23.808 L 294.083 23.422 307.283 23.372 C 321.833 23.317,321.636 23.305,323.762 24.351 C 324.570 24.750,328.698 28.277,342.772 40.600 C 361.941 57.382,361.834 57.294,364.010 58.113 C 373.333 61.621,382.612 52.815,379.480 43.431 C 378.668 40.997,377.738 39.905,372.833 35.617 C 366.713 30.267,364.853 28.637,363.002 27.000 C 362.017 26.129,360.733 25.015,360.148 24.524 C 359.562 24.033,358.708 23.283,358.250 22.857 C 357.792 22.432,356.892 21.637,356.250 21.092 C 355.608 20.546,354.670 19.721,354.164 19.258 C 353.658 18.795,352.797 18.042,352.249 17.583 C 351.701 17.125,350.577 16.149,349.752 15.414 C 336.909 3.986,333.843 2.096,325.500 0.469 C 323.705 0.119,295.829 -0.184,292.750 0.113 M365.297 123.674 C 363.764 124.051,362.470 124.679,361.008 125.756 C 359.950 126.536,359.618 126.821,357.596 128.683 C 357.039 129.196,355.774 130.321,354.785 131.183 C 353.795 132.045,352.212 133.425,351.265 134.250 C 350.319 135.075,348.991 136.246,348.314 136.851 C 346.093 138.839,336.780 147.067,335.417 148.246 C 334.683 148.880,333.746 149.713,333.333 150.096 C 332.921 150.479,332.021 151.269,331.333 151.852 C 330.646 152.434,329.671 153.295,329.167 153.766 C 328.662 154.237,327.688 155.099,327.000 155.682 C 326.313 156.264,325.637 156.850,325.500 156.984 C 323.191 159.229,323.027 159.250,307.667 159.250 C 291.011 159.250,292.411 159.573,287.083 154.500 C 286.533 153.976,285.178 152.731,284.072 151.732 C 282.966 150.734,280.304 148.298,278.156 146.319 C 276.008 144.340,273.200 141.763,271.917 140.592 C 270.633 139.420,268.721 137.656,267.667 136.672 C 266.612 135.688,265.450 134.629,265.083 134.319 C 264.717 134.009,263.527 132.910,262.440 131.878 C 260.183 129.733,260.167 129.725,260.166 130.792 C 260.160 137.467,256.018 144.036,249.151 148.259 C 248.014 148.958,247.061 149.552,247.035 149.578 C 246.936 149.674,272.346 173.029,274.694 175.000 C 279.100 178.700,284.934 181.294,291.083 182.287 C 293.510 182.679,320.926 182.740,323.733 182.360 C 328.665 181.692,333.700 179.823,337.688 177.181 C 339.863 175.740,339.841 175.759,351.888 165.118 C 357.404 160.246,365.142 153.424,369.083 149.957 C 376.625 143.325,377.764 142.191,378.715 140.372 C 383.409 131.390,375.243 121.228,365.297 123.674 " stroke="none" fill="#135b93" fill-rule="evenodd"></path><path id="path3" d="M118.890 61.583 C 118.891 62.317,118.920 62.596,118.956 62.204 C 118.991 61.812,118.990 61.212,118.954 60.871 C 118.919 60.529,118.890 60.850,118.890 61.583 M52.333 215.001 C 48.926 215.467,46.000 216.673,46.000 217.611 C 46.000 218.296,46.690 222.237,46.838 222.395 C 46.914 222.476,47.442 222.315,48.029 222.031 C 51.363 220.422,56.192 220.463,57.893 222.115 C 60.723 224.863,58.676 230.335,53.053 235.055 C 51.453 236.399,47.837 239.220,46.755 239.970 L 45.956 240.524 46.060 241.387 C 46.117 241.862,46.164 243.019,46.165 243.958 L 46.167 245.667 54.971 245.667 L 63.776 245.667 64.035 242.792 C 64.178 241.210,64.247 239.868,64.189 239.809 C 64.131 239.750,63.033 239.845,61.750 240.020 C 60.000 240.259,58.647 240.327,56.338 240.294 L 53.259 240.250 54.279 239.500 C 61.964 233.850,65.605 226.354,63.676 220.155 C 62.440 216.185,58.098 214.212,52.333 215.001 M144.583 215.080 C 138.275 216.469,134.806 222.683,135.047 232.164 C 135.289 241.666,138.706 246.038,145.917 246.070 C 154.137 246.107,159.021 238.194,157.841 226.750 C 156.939 218.002,151.811 213.489,144.583 215.080 M318.000 215.108 C 312.103 216.255,308.619 222.168,310.012 228.667 C 310.328 230.144,311.204 231.844,312.121 232.761 C 314.848 235.488,321.058 235.577,324.922 232.944 L 325.583 232.493 325.633 233.135 C 325.777 234.991,324.498 238.304,323.302 239.170 C 321.555 240.435,318.616 240.739,314.346 240.095 C 313.390 239.951,312.516 239.833,312.404 239.833 C 312.094 239.833,310.932 244.855,311.203 245.023 C 312.209 245.644,316.695 246.268,319.000 246.106 C 326.679 245.568,331.097 239.493,331.076 229.500 C 331.052 218.392,326.557 213.444,318.000 215.108 M235.917 215.328 L 234.250 215.430 232.583 216.553 C 231.667 217.170,230.143 218.061,229.197 218.532 C 227.719 219.269,227.489 219.437,227.559 219.736 C 227.604 219.927,227.772 221.121,227.934 222.390 L 228.228 224.696 228.738 224.594 C 229.019 224.538,230.287 223.984,231.556 223.364 L 233.863 222.236 233.741 233.951 L 233.618 245.667 236.307 245.667 L 238.996 245.667 238.873 244.375 C 238.711 242.676,238.714 219.649,238.876 217.125 L 239.001 215.167 238.292 215.197 C 237.902 215.213,236.833 215.273,235.917 215.328 M148.878 220.995 C 151.262 222.129,152.404 224.810,152.608 229.750 C 152.918 237.270,151.228 240.431,146.917 240.396 C 142.528 240.361,140.791 237.800,140.546 231.000 C 140.320 224.736,141.469 221.575,144.304 220.653 C 145.178 220.369,148.008 220.580,148.878 220.995 M321.979 220.941 C 323.911 221.565,325.364 224.108,325.533 227.162 L 325.583 228.075 324.667 228.695 C 320.196 231.720,314.771 230.143,314.538 225.750 C 314.322 221.674,317.630 219.537,321.979 220.941 " stroke="none" fill="#635c64" fill-rule="evenodd"></path><path id="path4" d="M26.322 23.792 C 25.644 24.136,25.293 24.454,24.917 25.070 L 24.417 25.890 24.405 33.903 C 24.398 38.371,24.435 40.583,24.488 38.904 C 24.601 35.325,24.804 34.809,26.386 34.072 L 27.250 33.670 55.617 33.668 C 75.634 33.667,84.244 33.721,84.867 33.850 C 86.231 34.134,87.659 34.914,88.927 36.067 C 89.962 37.008,95.916 42.343,97.595 43.833 C 98.237 44.403,100.746 46.665,103.417 49.082 C 104.150 49.746,105.173 50.655,105.690 51.103 C 106.579 51.872,108.639 53.731,111.833 56.649 C 112.612 57.361,113.813 58.424,114.500 59.012 C 115.188 59.601,116.313 60.609,117.000 61.253 C 117.688 61.898,118.381 62.526,118.542 62.650 C 118.818 62.862,118.833 62.602,118.833 57.699 L 118.833 52.523 110.050 44.636 C 105.219 40.299,100.575 36.133,99.730 35.379 C 98.884 34.625,95.861 31.917,93.012 29.360 C 87.558 24.466,86.794 23.918,84.867 23.517 C 84.244 23.387,75.625 23.333,55.605 23.333 L 27.226 23.333 26.322 23.792 M294.500 23.448 C 292.333 23.811,290.791 24.770,287.830 27.598 C 285.784 29.551,275.785 39.059,264.882 49.417 L 260.672 53.417 260.669 58.542 C 260.668 61.360,260.719 63.667,260.783 63.667 C 260.847 63.667,261.768 62.823,262.828 61.792 C 265.349 59.341,268.310 56.510,271.588 53.417 C 274.114 51.032,277.781 47.549,284.750 40.913 C 291.227 34.745,291.133 34.820,293.333 34.065 C 294.203 33.766,294.954 33.750,307.917 33.750 L 321.583 33.750 322.750 34.215 C 324.116 34.760,324.869 35.233,325.957 36.229 C 326.393 36.628,327.685 37.771,328.827 38.769 C 329.970 39.767,332.783 42.223,335.077 44.226 C 337.372 46.230,339.775 48.340,340.417 48.915 C 341.058 49.490,342.063 50.363,342.649 50.855 C 343.235 51.347,344.360 52.343,345.149 53.067 C 345.938 53.791,346.958 54.680,347.417 55.043 C 347.875 55.406,348.887 56.288,349.667 57.003 C 350.446 57.719,351.383 58.542,351.750 58.833 C 352.117 59.124,353.204 60.065,354.167 60.923 C 360.373 66.460,361.795 67.581,363.496 68.279 C 370.171 71.016,377.657 67.494,379.680 60.664 C 380.025 59.500,380.053 59.031,380.102 53.667 C 380.151 48.243,380.140 47.990,379.912 49.208 C 378.548 56.487,370.969 60.731,364.010 58.113 C 361.834 57.294,361.941 57.382,342.772 40.600 C 323.670 23.876,324.004 24.145,321.658 23.592 C 320.640 23.352,295.860 23.221,294.500 23.448 M24.223 56.333 C 24.223 57.021,24.252 57.302,24.288 56.958 C 24.324 56.615,24.324 56.052,24.288 55.708 C 24.252 55.365,24.223 55.646,24.223 56.333 M24.243 66.083 C 24.243 70.025,24.265 71.614,24.292 69.614 C 24.318 67.614,24.318 64.389,24.291 62.447 C 24.265 60.505,24.243 62.142,24.243 66.083 M24.056 79.833 C 24.056 80.521,24.085 80.802,24.121 80.458 C 24.157 80.115,24.157 79.552,24.121 79.208 C 24.085 78.865,24.056 79.146,24.056 79.833 M24.056 83.833 C 24.056 84.521,24.085 84.802,24.121 84.458 C 24.157 84.115,24.157 83.552,24.121 83.208 C 24.085 82.865,24.056 83.146,24.056 83.833 M24.056 87.667 C 24.056 88.354,24.085 88.635,24.121 88.292 C 24.157 87.948,24.157 87.385,24.121 87.042 C 24.085 86.698,24.056 86.979,24.056 87.667 M24.076 97.583 C 24.076 101.525,24.098 103.114,24.125 101.114 C 24.151 99.114,24.151 95.889,24.125 93.947 C 24.098 92.005,24.076 93.642,24.076 97.583 M23.889 111.333 C 23.889 112.021,23.919 112.302,23.955 111.958 C 23.991 111.615,23.991 111.052,23.955 110.708 C 23.919 110.365,23.889 110.646,23.889 111.333 M23.890 115.250 C 23.891 115.983,23.920 116.263,23.956 115.871 C 23.991 115.479,23.990 114.879,23.954 114.537 C 23.919 114.196,23.890 114.517,23.890 115.250 M23.889 119.167 C 23.889 119.854,23.919 120.135,23.955 119.792 C 23.991 119.448,23.991 118.885,23.955 118.542 C 23.919 118.198,23.889 118.479,23.889 119.167 M23.910 129.083 C 23.910 133.025,23.932 134.614,23.958 132.614 C 23.985 130.614,23.985 127.389,23.958 125.447 C 23.931 123.505,23.910 125.142,23.910 129.083 M380.039 136.170 C 379.778 140.094,378.570 141.614,369.083 149.957 C 365.142 153.424,357.404 160.246,351.888 165.118 C 339.841 175.759,339.863 175.740,337.688 177.181 C 333.700 179.823,328.665 181.692,323.733 182.360 C 320.926 182.740,293.510 182.679,291.083 182.287 C 284.905 181.289,279.148 178.724,274.659 174.969 C 273.252 173.792,247.576 150.258,247.416 149.999 C 247.067 149.435,247.000 150.238,247.000 154.975 L 247.000 160.117 248.035 161.017 C 248.604 161.512,249.335 162.180,249.660 162.503 C 249.984 162.825,251.361 164.100,252.718 165.336 C 254.076 166.572,255.965 168.296,256.917 169.167 C 257.869 170.037,259.420 171.456,260.365 172.318 C 261.310 173.180,262.533 174.311,263.083 174.830 C 263.633 175.349,264.533 176.174,265.083 176.664 C 265.633 177.155,266.908 178.319,267.917 179.253 C 274.184 185.054,275.044 185.792,277.333 187.331 C 281.193 189.926,286.173 191.843,291.083 192.625 C 293.483 193.007,321.177 193.071,323.750 192.701 C 330.722 191.696,336.806 188.836,342.250 184.005 C 343.717 182.703,346.097 180.598,347.815 179.083 C 352.741 174.739,360.685 167.727,361.583 166.928 C 362.225 166.358,363.200 165.496,363.750 165.014 C 364.300 164.531,365.322 163.621,366.021 162.991 C 366.720 162.360,367.803 161.411,368.427 160.881 C 369.051 160.351,370.140 159.383,370.847 158.731 C 371.554 158.079,372.796 156.992,373.608 156.316 C 379.532 151.379,380.226 149.686,380.129 140.417 C 380.101 137.758,380.060 135.847,380.039 136.170 M23.736 144.833 C 23.736 146.621,23.761 147.352,23.791 146.458 C 23.821 145.565,23.821 144.102,23.791 143.208 C 23.761 142.315,23.736 143.046,23.736 144.833 M23.723 150.667 C 23.723 151.354,23.752 151.635,23.788 151.292 C 23.824 150.948,23.824 150.385,23.788 150.042 C 23.752 149.698,23.723 149.979,23.723 150.667 M117.917 162.020 C 110.400 168.896,103.744 174.933,103.125 175.435 C 98.227 179.408,92.158 181.817,85.718 182.344 C 81.979 182.650,25.420 182.456,23.744 182.131 C 10.914 179.646,2.302 170.851,0.247 158.134 C 0.042 156.867,0.028 157.258,0.073 162.750 C 0.118 168.103,0.161 168.929,0.475 170.407 C 3.046 182.506,13.379 191.601,25.766 192.668 C 29.494 192.989,86.545 192.798,88.250 192.459 C 93.280 191.457,97.538 189.762,100.991 187.384 C 103.170 185.884,104.045 185.132,110.167 179.490 C 111.129 178.603,114.242 175.758,117.083 173.168 C 119.925 170.578,122.954 167.811,123.814 167.021 C 125.789 165.205,128.050 163.150,130.073 161.333 L 131.651 159.917 131.659 154.708 C 131.663 151.844,131.648 149.504,131.625 149.509 C 131.602 149.513,125.433 155.143,117.917 162.020 M23.712 154.167 C 23.712 154.579,23.745 154.748,23.784 154.542 C 23.824 154.335,23.824 153.998,23.784 153.792 C 23.745 153.585,23.712 153.754,23.712 154.167 " stroke="none" fill="#0c3c64" fill-rule="evenodd"></path></g></svg>